# xmcd
#
# Track frame offsets: 
#        150
#        12327
#        26869
#        41742
#        53664
#        68748
#        83609
#        98072
#        110878
#        124242
#        138264
#        152569
#        165142
#        179006
#
# Disc length: 2564 seconds
#
# Revision: 0
# Processed by: cddbd v1.5.2PL0 Copyright (c) Steve Scherf et al.
# Submitted via: ExactAudioCopy v0.99pb3
#
DISCID=b30a020e
DTITLE=Artie Shaw - The Gramercy Five 1940-45
DYEAR=1972
DGENRE=Jazz
TTITLE0=Special Delivery Stomp
TTITLE1=Keepin' Myself For You
TTITLE2=Summit Ridge Drive
TTITLE3=Cross Your Heart
TTITLE4=Dr Livingstone I Presume
TTITLE5=When The Quail Come Back To San Quentin
TTITLE6=Smoke Gets In Your Eyes
TTITLE7=My Blue Heaven
TTITLE8=The Grabtown Grapple
TTITLE9=The Sad Sack
TTITLE10=Scuttlebutt
TTITLE11=The Gentle Grifter
TTITLE12=Mysterioso
TTITLE13=Hop, Skip And Jump
EXTD=
EXTT0=
EXTT1=
EXTT2=
EXTT3=
EXTT4=
EXTT5=
EXTT6=
EXTT7=
EXTT8=
EXTT9=
EXTT10=
EXTT11=
EXTT12=
EXTT13=
PLAYORDER=
